{"title":"Space Dandy 06 The War of the Undies and Vests, Baby (DUB) (1920","uid":9593722,"size":972554768,"categoryP":"video","categoryS":"hd___tv_shows","magnet":"?xt=urn:btih:1bc39f83daad6ad81a38023c3869c12f0b9e4261&amp;dn=Space+Dandy+06+The+War+of+the+Undies+and+Vests%2C+Baby+%28DUB%29+%281920&amp;tr=udp%3A%2F%2Ftracker.openbittorrent.com%3A80&amp;tr=udp%3A%2F%2Fopen.demonii.com%3A1337&amp;tr=udp%3A%2F%2Ftracker.coppersurfer.tk%3A6969&amp;tr=udp%3A%2F%2Fexodus.desync.com%3A6969","seeders":0,"leechers":1,"uploader":"frostyon420","files":-1,"time":1391967960,"description":"ALWAYS HD never RE-ENCODED! over 500 torrents and counting\n\nJoin me on SuprBay for updates on my torrents, or to make torrent requests (if i can access the content online). Please Let me know if need to fix something or if i need to re-seed any of my torrents.  &lt;a href=&quot;\nhttps://forum.suprbay.org/showthread.php?tid=369&quot; rel=&quot;nofollow&quot; target=&quot;_NEW&quot;&gt;\nhttps://forum.suprbay.org/showthread.php?tid=369&lt;/a&gt; \n\nMy RSS feed &lt;a href=&quot;\nhttp://rss.thepiratebay.sx/user/178e8d96586bbd0dcb5c2729df9a5c4d&quot; rel=&quot;nofollow&quot; target=&quot;_NEW&quot;&gt;\nhttp://rss.thepiratebay.sx/user/178e8d96586bbd0dcb5c2729df9a5c4d&lt;/a&gt;\n\n\nSeedbox supported\n\nItunes-rip\n\n\nComplete name                            : C:UsersPhr0stYDesktopSpace Dandy 06 The War of the Undies and Vests, Baby (DUB) (1920x1080) [Phr0stY].mkv\nFormat                                   : Matroska\nFormat version                           : Version 4 / Version 2\nFile size                                : 928 MiB\nDuration                                 : 22mn 53s\nOverall bit rate                         : 5 666 Kbps\nEncoded date                             : UTC 2014-02-09 16:18:46\nWriting application                      : mkvmerge v6.5.0 ('Isn't she lovely') built on Oct 20 2013 12:50:05\nWriting library                          : libebml v1.3.0 + libmatroska v1.4.1\n\nVideo\nID                                       : 1\nFormat                                   : AVC\nFormat/Info                              : Advanced Video Codec\nFormat profile                           : &lt;a class=&quot;__cf_email__&quot; href=&quot;/cdn-cgi/l/email-protection&quot; data-cfemail=&quot;feb6979996beb2cad0ce&quot;&gt;[email&amp;#160;protected]&lt;/a&gt;&lt;script cf-hash='f9e31' type=&quot;text/javascript&quot;&gt;\n/* &lt;![CDATA[ */!function(){try{var t=&quot;currentScript&quot;in document?document.currentScript:function(){for(var t=document.getElementsByTagName(&quot;script&quot;),e=t.length;e--;)if(t[e].getAttribute(&quot;cf-hash&quot;))return t[e]}();if(t&amp;&amp;t.previousSibling){var e,r,n,i,c=t.previousSibling,a=c.getAttribute(&quot;data-cfemail&quot;);if(a){for(e=&quot;&quot;,r=parseInt(a.substr(0,2),16),n=2;a.length-n;n+=2)i=parseInt(a.substr(n,2),16)^r,e+=String.fromCharCode(i);e=document.createTextNode(e),c.parentNode.replaceChild(e,c)}}}catch(u){}}();/* ]]&gt; */&lt;/script&gt;\nFormat settings, CABAC                   : Yes\nFormat settings, ReFrames                : 4 frames\nCodec ID                                 : V_MPEG4/ISO/AVC\nDuration                                 : 22mn 53s\nBit rate                                 : 5 170 Kbps\nWidth                                    : 1 920 pixels\nHeight                                   : 1 080 pixels\nDisplay aspect ratio                     : 16:9\nFrame rate mode                          : Constant\nFrame rate                               : 23.976 fps\nColor space                              : YUV\nChroma subsampling                       : 4:2:0\nBit depth                                : 8 bits\nScan type                                : Progressive\nBits/(Pixel*Frame)                       : 0.104\nStream size                              : 846 MiB (91%)\nLanguage                                 : English\nDefault                                  : Yes\nForced                                   : No\nColor primaries                          : BT.709\nTransfer characteristics                 : BT.709\nMatrix coefficients                      : BT.709\n\nAudio\nID                                       : 2\nFormat                                   : AC-3\nFormat/Info                              : Audio Coding 3\nMode extension                           : CM (complete main)\nFormat settings, Endianness              : Big\nCodec ID                                 : A_AC3\nDuration                                 : 22mn 53s\nBit rate mode                            : Constant\nBit rate                                 : 384 Kbps\nChannel count                            : 6 channels\nChannel positions                        : Front: L C R, Side: L R, LFE\nSampling rate                            : 48.0 KHz\nBit depth                                : 16 bits\nCompression mode                         : Lossy\nStream size                              : 62.9 MiB (7%)\nLanguage                                 : English\nDefault                                  : Yes\nForced                                   : No\n\n","torrent":{"xt":"urn:btih:1bc39f83daad6ad81a38023c3869c12f0b9e4261","amp;dn":"Space+Dandy+06+The+War+of+the+Undies+and+Vests%2C+Baby+%28DUB%29+%281920","amp;tr":["udp%3A%2F%2Ftracker.openbittorrent.com%3A80","udp%3A%2F%2Fopen.demonii.com%3A1337","udp%3A%2F%2Ftracker.coppersurfer.tk%3A6969","udp%3A%2F%2Fexodus.desync.com%3A6969"],"infoHash":"1bc39f83daad6ad81a38023c3869c12f0b9e4261","infoHashBuffer":{"type":"Buffer","data":[27,195,159,131,218,173,106,216,26,56,2,60,56,105,193,47,11,158,66,97]},"announce":[],"urlList":[]}}